<?xml version="1.0" encoding="utf-8"?>
<!-- Generator: Adobe Illustrator 16.0.4, SVG Export Plug-In . SVG Version: 6.00 Build 0)  -->
<!DOCTYPE svg PUBLIC "-//W3C//DTD SVG 1.1//EN" "http://www.w3.org/Graphics/SVG/1.1/DTD/svg11.dtd">
<svg version="1.1" id="Capa_1" xmlns="http://www.w3.org/2000/svg" xmlns:xlink="http://www.w3.org/1999/xlink" x="0px" y="0px"
	 width="100px" height="100px" viewBox="0 0 100 100" enable-background="new 0 0 100 100" xml:space="preserve">
<g>
	<path fill="none" stroke="#E40521" stroke-width="0.5" stroke-linecap="round" stroke-miterlimit="10" d="M50.5,100
		c0-40-50-60-50-100"/>
	<path fill="none" stroke="#E40521" stroke-width="0.5" stroke-linecap="round" stroke-miterlimit="10" d="M10.3,0
		c0,40,50,60,50,100"/>
	<path fill="none" stroke="#E40521" stroke-width="0.5" stroke-linecap="round" stroke-miterlimit="10" d="M20.1,0
		c0,40,50,60,50,100"/>
	<path fill="none" stroke="#E40521" stroke-width="0.5" stroke-linecap="round" stroke-miterlimit="10" d="M29.9,0
		c0,40,50,60,50,100"/>
	<path fill="none" stroke="#E40521" stroke-width="0.5" stroke-linecap="round" stroke-miterlimit="10" d="M39.7,0
		c0,40,50,60,50,100"/>
	<path fill="none" stroke="#E40521" stroke-width="0.5" stroke-linecap="round" stroke-miterlimit="10" d="M49.5,0
		c0,40,50,60,50,100"/>
</g>
<path fill="none" stroke="#E40521" stroke-width="0.5" stroke-linecap="round" stroke-miterlimit="10" d="M54.763,22.051
	C68.227,10.997,82.114,1,100,1"/>
<path fill="none" stroke="#E40521" stroke-width="0.5" stroke-linecap="round" stroke-miterlimit="10" d="M100,10.8
	c-16.244,0-29.189,8.246-41.516,18.04"/>
<path fill="none" stroke="#E40521" stroke-width="0.5" stroke-linecap="round" stroke-miterlimit="10" d="M100,20.6
	c-14.356,0-26.137,6.44-37.189,14.699"/>
<path fill="none" stroke="#E40521" stroke-width="0.5" stroke-linecap="round" stroke-miterlimit="10" d="M100,30.4
	c-12.284,0-22.682,4.716-32.352,11.251"/>
<path fill="none" stroke="#E40521" stroke-width="0.5" stroke-linecap="round" stroke-miterlimit="10" d="M100,40.2
	c-10.077,0-18.886,3.174-27.064,7.922"/>
<path fill="none" stroke="#E40521" stroke-width="0.5" stroke-linecap="round" stroke-miterlimit="10" d="M100,50
	c-7.792,0-14.825,1.897-21.395,4.953"/>
</svg>
