<?xml version="1.0" encoding="utf-8"?>
<!-- Generator: Adobe Illustrator 16.0.4, SVG Export Plug-In . SVG Version: 6.00 Build 0)  -->
<!DOCTYPE svg PUBLIC "-//W3C//DTD SVG 1.1//EN" "http://www.w3.org/Graphics/SVG/1.1/DTD/svg11.dtd">
<svg version="1.1" id="Capa_1" xmlns="http://www.w3.org/2000/svg" xmlns:xlink="http://www.w3.org/1999/xlink" x="0px" y="0px"
	 width="100px" height="100px" viewBox="0 0 100 100" enable-background="new 0 0 100 100" xml:space="preserve">
<polyline fill="none" stroke="#E40521" stroke-width="0.5" stroke-linecap="round" stroke-miterlimit="10" points="10.001,0 10,10 
	0,9.917 "/>
<polyline fill="none" stroke="#E40521" stroke-width="0.5" stroke-linecap="round" stroke-miterlimit="10" points="20,0 20,20 
	0,19.917 "/>
<polyline fill="none" stroke="#E40521" stroke-width="0.5" stroke-linecap="round" stroke-miterlimit="10" points="0,30.083 30,30 
	29.916,0 "/>
<polyline fill="none" stroke="#E40521" stroke-width="0.5" stroke-linecap="round" stroke-miterlimit="10" points="39.916,0 40,40 
	0,39.917 "/>
<polyline fill="none" stroke="#E40521" stroke-width="0.5" stroke-linecap="round" stroke-miterlimit="10" points="50,0 50,50 
	0,49.917 "/>
<path fill="none" stroke="#E40521" stroke-width="0.5" stroke-linecap="round" stroke-miterlimit="10" d="M0.418-0.417
	c0,0.468-0.373,0.847-0.834,0.847"/>
<path fill="none" stroke="#E40521" stroke-width="0.5" stroke-linecap="round" stroke-miterlimit="10" d="M50,50
	c0,27.637-22.363,50-50,50"/>
<path fill="none" stroke="#E40521" stroke-width="0.5" stroke-linecap="round" stroke-miterlimit="10" d="M40,50
	c0,21.971-17.891,39.75-40,39.75"/>
<path fill="none" stroke="#E40521" stroke-width="0.5" stroke-linecap="round" stroke-miterlimit="10" d="M30,50
	c0,16.582-13.418,30-30,30"/>
<path fill="none" stroke="#E40521" stroke-width="0.5" stroke-linecap="round" stroke-miterlimit="10" d="M20,50
	c0,11.055-8.945,20-20,20"/>
<path fill="none" stroke="#E40521" stroke-width="0.5" stroke-linecap="round" stroke-miterlimit="10" d="M10,50
	c0,5.804-4.473,10.5-10,10.5"/>
</svg>
