<?xml version="1.0" encoding="utf-8"?>
<!-- Generator: Adobe Illustrator 16.0.4, SVG Export Plug-In . SVG Version: 6.00 Build 0)  -->
<!DOCTYPE svg PUBLIC "-//W3C//DTD SVG 1.1//EN" "http://www.w3.org/Graphics/SVG/1.1/DTD/svg11.dtd">
<svg version="1.1" id="Capa_1" xmlns="http://www.w3.org/2000/svg" xmlns:xlink="http://www.w3.org/1999/xlink" x="0px" y="0px"
	 width="100px" height="100px" viewBox="0 0 100 100" enable-background="new 0 0 100 100" xml:space="preserve">
<g>
	
		<line fill="none" stroke="#E40521" stroke-width="0.5" stroke-linecap="round" stroke-miterlimit="10" x1="0" y1="100" x2="100" y2="0"/>
	
		<line fill="none" stroke="#E40521" stroke-width="0.5" stroke-linecap="round" stroke-miterlimit="10" x1="10" y1="100" x2="100" y2="10.125"/>
	
		<line fill="none" stroke="#E40521" stroke-width="0.5" stroke-linecap="round" stroke-miterlimit="10" x1="20.125" y1="100" x2="100" y2="20.25"/>
	
		<line fill="none" stroke="#E40521" stroke-width="0.5" stroke-linecap="round" stroke-miterlimit="10" x1="30" y1="100" x2="100" y2="30.125"/>
	
		<line fill="none" stroke="#E40521" stroke-width="0.5" stroke-linecap="round" stroke-miterlimit="10" x1="39.875" y1="100" x2="100" y2="40.25"/>
	<path fill="none" stroke="#E40521" stroke-width="0.5" stroke-linecap="round" stroke-miterlimit="10" d="M50,100
		c0.125,0,50-49.625,50-49.625"/>
</g>
<g>
	
		<line fill="none" stroke="#E40521" stroke-width="0.5" stroke-linecap="round" stroke-miterlimit="10" x1="50" y1="50" x2="0" y2="0"/>
	
		<line fill="none" stroke="#E40521" stroke-width="0.5" stroke-linecap="round" stroke-miterlimit="10" x1="55" y1="45" x2="10.125" y2="0"/>
	
		<line fill="none" stroke="#E40521" stroke-width="0.5" stroke-linecap="round" stroke-miterlimit="10" x1="60" y1="40" x2="20.25" y2="0"/>
	
		<line fill="none" stroke="#E40521" stroke-width="0.5" stroke-linecap="round" stroke-miterlimit="10" x1="65" y1="35" x2="30.125" y2="0"/>
	
		<line fill="none" stroke="#E40521" stroke-width="0.5" stroke-linecap="round" stroke-miterlimit="10" x1="70" y1="30" x2="40.25" y2="0"/>
	<path fill="none" stroke="#E40521" stroke-width="0.5" stroke-linecap="round" stroke-miterlimit="10" d="M75,25
		c0-0.125-24.625-25-24.625-25"/>
</g>
</svg>
